<?xml version="1.0" encoding="UTF-8"?>
<!--
Font Awesome Pro 5.15.4 by @fontawesome - https://fontawesome.com
License - https://fontawesome.com/license (Commercial License)
-->
<svg xmlns="http://www.w3.org/2000/svg" style="display: none;">
  <symbol id="cube" viewBox="0 0 512 512">
    <path d="M239.1 7.5l-208 78c-18.7 7-31.1 25-31.1 45v225.1c0 18.2 10.3 34.8 26.5 42.9l208 104c13.5 6.8 29.4 6.8 42.9 0l208-104c16.3-8.1 26.5-24.8 26.5-42.9V130.5c0-20-12.4-37.9-31.1-44.9l-208-78C262 3.4 250 3.4 239.1 7.5zm16.9 45l208 78v.3l-208 84.5-208-84.5v-.3l208-78zM48 182.6l184 74.8v190.2l-184-92v-173zm232 264.9V257.4l184-74.8v172.9l-184 92z"></path>
  </symbol>
  <symbol id="th-large" viewBox="0 0 512 512">
    <path d="M0 80v352c0 26.51 21.49 48 48 48h416c26.51 0 48-21.49 48-48V80c0-26.51-21.49-48-48-48H48C21.49 32 0 53.49 0 80zm232 0v152H48V86a6 6 0 0 1 6-6h178zM48 280h184v152H54a6 6 0 0 1-6-6V280zm232 152V280h184v146a6 6 0 0 1-6 6H280zm184-200H280V80h178a6 6 0 0 1 6 6v146z"></path>
  </symbol>
</svg>
